<svg xmlns="http://www.w3.org/2000/svg" data-name="Layer 1" viewBox="0 0 512 512" fill="#903749"><path d="M397.64,86.66a7.5,7.5,0,0,0,7.5-7.5,4.07,4.07,0,0,1,4.06-4.07h9.7A4.07,4.07,0,0,1,423,79.16v5.22a4.07,4.07,0,0,1-4.07,4.07,15.79,15.79,0,0,0-15.78,15.78v8.48a7.5,7.5,0,1,0,15,0v-8.48a.78.78,0,0,1,.78-.78A19.09,19.09,0,0,0,438,84.38V79.16A19.09,19.09,0,0,0,418.9,60.09h-9.7a19.08,19.08,0,0,0-19.06,19.07A7.5,7.5,0,0,0,397.64,86.66Zm13.81,42.25a7.5,7.5,0,1,0,7.5,7.5A7.5,7.5,0,0,0,411.45,128.91ZM501.7,412.26H480.1V165.78A22.54,22.54,0,0,0,497,144V52.16a22.53,22.53,0,0,0-22.5-22.5h-128A22.53,22.53,0,0,0,324,52.16V104H173V52.16a22.53,22.53,0,0,0-22.5-22.5H22.5A22.53,22.53,0,0,0,0,52.16V144a22.52,22.52,0,0,0,22.5,22.5h9.4V412.26H10.3A10.31,10.31,0,0,0,0,422.56v20.05a39.8,39.8,0,0,0,39.77,39.73H472.23A39.8,39.8,0,0,0,512,442.61V422.56A10.31,10.31,0,0,0,501.7,412.26ZM339,52.16a7.51,7.51,0,0,1,7.5-7.5h128a7.51,7.51,0,0,1,7.5,7.5V144a7.51,7.51,0,0,1-7.5,7.5h-37a12.42,12.42,0,0,0-8.84,3.66l-20.78,20.78-8.63-17.48a12.42,12.42,0,0,0-11.21-7H346.5A7.51,7.51,0,0,1,339,144Zm-259.6,337H432.6a7.5,7.5,0,0,0,7.5-7.5V166.49h25V412.26H315.52a16,16,0,0,0-16,16,1,1,0,0,1-1,1H213.44a1,1,0,0,1-1-1,16,16,0,0,0-16-16H46.9V166.49h25V381.71A7.5,7.5,0,0,0,79.4,389.21Zm44.8-143.77H169a5.29,5.29,0,0,1,5.29,5.29v22.4a27.7,27.7,0,1,1-55.39,0v-22.4A5.3,5.3,0,0,1,124.2,245.44Zm-5.3-14.28v-9.55c0-2.49,2.19-5.27,3.67-5.27h51.72v10.43a3.67,3.67,0,0,1-3.66,3.67,6.85,6.85,0,0,0-.79,0c-.29,0-.56,0-.84,0H124.2A20.12,20.12,0,0,0,118.9,231.16Zm34.92,86.25a7.22,7.22,0,0,1-14.44-.1v-2.1a42.28,42.28,0,0,0,14.37,0Zm-7.22,22.12a22.24,22.24,0,0,0,22-18.95L180,322.74a32.45,32.45,0,0,1,26.34,31.83v19.64H86.9V354.57a32.45,32.45,0,0,1,26.34-31.83l11.38-2.16A22.24,22.24,0,0,0,146.6,339.53ZM343,245.44h44.8a5.3,5.3,0,0,1,5.3,5.29v22.4a27.7,27.7,0,1,1-55.39,0v-22.4A5.29,5.29,0,0,1,343,245.44Zm-5.29-18.67V216.34h51.72c1.48,0,3.67,2.78,3.67,5.27v9.55a20.12,20.12,0,0,0-5.3-.72H343c-.28,0-.55,0-.84,0a6.85,6.85,0,0,0-.79,0A3.67,3.67,0,0,1,337.71,226.77Zm34.91,90.54a7.22,7.22,0,0,1-14.44,0v-2.1a42.35,42.35,0,0,0,14.44,0Zm-7.22,22.22a22.25,22.25,0,0,0,22-18.95l11.38,2.16a32.45,32.45,0,0,1,26.34,31.83v19.64H305.71V354.57a32.45,32.45,0,0,1,26.34-31.83l11.38-2.16A22.24,22.24,0,0,0,365.4,339.53ZM173,119H324v25H173Zm-5.75,40h162.5a22.43,22.43,0,0,0,16.75,7.5h40l10.1,20.45a11.54,11.54,0,0,0,8.44,6.26,11.79,11.79,0,0,0,1.87.15,11.54,11.54,0,0,0,8.14-3.37l10-10V320a47.3,47.3,0,0,0-23.53-12l-9.25-1.76a42.65,42.65,0,0,0,15.78-33.12v-22.4c0-.28,0-.56,0-.84s0-.52,0-.79V221.61c0-9.59-7.67-20.27-18.67-20.27H330.21a7.5,7.5,0,0,0-7.5,7.5v17.93a18.57,18.57,0,0,0,4.15,11.71,20.2,20.2,0,0,0-4.15,12.25v22.4a42.65,42.65,0,0,0,15.78,33.12L329.24,308a47.44,47.44,0,0,0-38.53,46.56v19.64H221.29V354.57A47.44,47.44,0,0,0,182.76,308l-9.25-1.76a42.65,42.65,0,0,0,15.78-33.12v-22.4a20.2,20.2,0,0,0-4.15-12.25,18.57,18.57,0,0,0,4.15-11.71V208.84a7.5,7.5,0,0,0-7.5-7.5H122.57c-11,0-18.67,10.68-18.67,20.27V249.1c0,.27,0,.53,0,.79s0,.56,0,.84v22.4a42.65,42.65,0,0,0,15.78,33.12L110.43,308A47.3,47.3,0,0,0,86.9,320V180l10,10a11.54,11.54,0,0,0,8.14,3.37,11.79,11.79,0,0,0,1.87-.15,11.54,11.54,0,0,0,8.44-6.26l10.1-20.45h25A22.43,22.43,0,0,0,167.25,159ZM22.5,151.49A7.51,7.51,0,0,1,15,144V52.16a7.51,7.51,0,0,1,7.5-7.5h128a7.51,7.51,0,0,1,7.5,7.5V144a7.51,7.51,0,0,1-7.5,7.5H123.93a12.42,12.42,0,0,0-11.21,7l-8.63,17.48L84.71,156.55h0l-1.39-1.39a12.42,12.42,0,0,0-8.84-3.66ZM497,442.61a24.78,24.78,0,0,1-24.77,24.73H39.77A24.78,24.78,0,0,1,15,442.61V427.26H196.48a1,1,0,0,1,1,1,16,16,0,0,0,16,16h85.12a16,16,0,0,0,16-16,1,1,0,0,1,1-1H497ZM59.4,92h54.2a7.5,7.5,0,0,0,0-15H59.4a7.5,7.5,0,1,0,0,15ZM256,319a52.39,52.39,0,1,0-52.39-52.39A52.45,52.45,0,0,0,256,319Zm0-89.78a37.39,37.39,0,1,1-37.39,37.39A37.43,37.43,0,0,1,256,229.21ZM121.1,114.51a7.5,7.5,0,0,0-7.5-7.5H59.4a7.5,7.5,0,1,0,0,15h54.2A7.5,7.5,0,0,0,121.1,114.51ZM247.23,281.33a18.61,18.61,0,0,0,26.3,0l.45-.45a7.5,7.5,0,0,0-10.61-10.61l-.44.45a3.61,3.61,0,0,1-5.09,0l-6-6a3.61,3.61,0,0,1,0-5.09l.44-.44a7.5,7.5,0,0,0-10.6-10.61l-.45.45a18.62,18.62,0,0,0,0,26.3Z"/></svg>